<svg width="50" height="47" viewBox="0 0 50 47" fill="none" xmlns="http://www.w3.org/2000/svg">
<g id="Group 243">
<path id="Vector" d="M36.9846 40.7214H21.0516" stroke="#9DB6EF" stroke-width="2" stroke-miterlimit="10" stroke-linejoin="round"/>
<path id="Vector_2" d="M10.9889 11.3713V28.1428V9.19098H48.9763L43.0224 30.3231C42.687 31.4132 41.7646 32.1679 40.5906 32.1679H9.98259C7.80229 32.1679 5.87357 33.7612 5.622 35.9415C5.37043 38.4572 7.38301 40.5537 9.81487 40.5537H11.492" stroke="#9DB6EF" stroke-width="2" stroke-miterlimit="10" stroke-linejoin="round"/>
<g id="Group">
<path id="Vector_3" d="M42.0162 45.7529C44.795 45.7529 47.0477 43.5002 47.0477 40.7214C47.0477 37.9427 44.795 35.69 42.0162 35.69C39.2375 35.69 36.9848 37.9427 36.9848 40.7214C36.9848 43.5002 39.2375 45.7529 42.0162 45.7529Z" stroke="#9DB6EF" stroke-width="2" stroke-miterlimit="10" stroke-linejoin="round"/>
</g>
<g id="Group_2">
<path id="Vector_4" d="M16.0202 45.7528C18.799 45.7528 21.0517 43.5002 21.0517 40.7214C21.0517 37.9426 18.799 35.6899 16.0202 35.6899C13.2414 35.6899 10.9888 37.9426 10.9888 40.7214C10.9888 43.5002 13.2414 45.7528 16.0202 45.7528Z" stroke="#9DB6EF" stroke-width="2" stroke-miterlimit="10" stroke-linejoin="round"/>
</g>
<path id="Vector_5" d="M8.47302 1.30841C9.8986 1.30841 10.9887 2.39856 10.9887 3.82413V11.3713" stroke="#9DB6EF" stroke-width="2" stroke-miterlimit="10" stroke-linejoin="round"/>
<path id="Vector_6" d="M0.925903 1.30841H8.47307" stroke="#9DB6EF" stroke-width="2" stroke-miterlimit="10" stroke-linejoin="round"/>
</g>
</svg>
